<?xml version="1.0" encoding="UTF-8" standalone="no"?>
<!-- Created with Inkscape (http://www.inkscape.org/) -->

<svg
   width="512"
   height="512"
   viewBox="0 0 135.46666 135.46667"
   version="1.1"
   id="svg5"
   inkscape:version="1.1.2 (0a00cf5339, 2022-02-04, custom)"
   sodipodi:docname="icon.svg"
   xmlns:inkscape="http://www.inkscape.org/namespaces/inkscape"
   xmlns:sodipodi="http://sodipodi.sourceforge.net/DTD/sodipodi-0.dtd"
   xmlns="http://www.w3.org/2000/svg"
   xmlns:svg="http://www.w3.org/2000/svg">
  <sodipodi:namedview
     id="namedview7"
     pagecolor="#ffffff"
     bordercolor="#666666"
     borderopacity="1.0"
     inkscape:pageshadow="2"
     inkscape:pageopacity="0.0"
     inkscape:pagecheckerboard="0"
     inkscape:document-units="mm"
     showgrid="false"
     units="px"
     width="512px"
     inkscape:zoom="0.77593294"
     inkscape:cx="453.00306"
     inkscape:cy="189.44936"
     inkscape:window-width="1920"
     inkscape:window-height="1057"
     inkscape:window-x="1912"
     inkscape:window-y="-8"
     inkscape:window-maximized="1"
     inkscape:current-layer="layer1" />
  <defs
     id="defs2" />
  <g
     inkscape:label="Layer 1"
     inkscape:groupmode="layer"
     id="layer1">
    <g
       aria-label="&gt;&lt;"
       transform="scale(0.80833841,1.2371056)"
       id="text1683"
       style="font-size:13.0927px;line-height:1.25;fill:#06bee1;stroke-width:0.327317">
      <path
         d="m 9.1387253,23.699397 q 4.2449067,0 56.5987497,34.312991 3.537421,4.244907 3.537421,9.904782 0,2.829937 -24.40821,20.163304 Q 27.887061,109.305 20.104733,109.305 11.261178,106.47507 11.261178,99.400224 v -1.061227 q 0,-5.306133 26.884406,-31.129312 V 64.73349 Q 0.29517078,42.09399 0.29517078,34.665404 v -1.414968 q 0,-4.952391 8.84355452,-9.551039 z"
         style="font-size:362.232px;font-family:'Sue Ellen Francisco';-inkscape-font-specification:'Sue Ellen Francisco, Normal'"
         id="path955" />
      <path
         d="m 156.29548,0.3524127 q 9.19729,0 10.966,12.0272343 0,4.244906 -37.85041,44.571515 v 1.061226 q 31.48305,14.149688 31.48305,21.224531 v 1.061227 q -1.76871,9.904781 -10.25852,9.904781 -45.279,-17.687109 -50.23139,-32.190539 0,-6.013617 31.48306,-32.190538 15.56465,-20.8707889 24.40821,-25.4694373 z"
         style="font-size:362.232px;font-family:'Sue Ellen Francisco';-inkscape-font-specification:'Sue Ellen Francisco, Normal'"
         id="path957" />
    </g>
  </g>
</svg>
