<?xml version="1.0" encoding="UTF-8" standalone="no"?>
<!-- Created with Inkscape (http://www.inkscape.org/) -->

<svg
   width="1600"
   height="784"
   viewBox="0 0 423.33331 207.43334"
   version="1.1"
   id="svg5"
   inkscape:version="1.1.2 (0a00cf5339, 2022-02-04, custom)"
   sodipodi:docname="logo-06bee1-pattern.svg"
   inkscape:export-filename="C:\Users\awens\Workspaces\dsus\src\logo-588157.png"
   inkscape:export-xdpi="96"
   inkscape:export-ydpi="96"
   xmlns:inkscape="http://www.inkscape.org/namespaces/inkscape"
   xmlns:sodipodi="http://sodipodi.sourceforge.net/DTD/sodipodi-0.dtd"
   xmlns="http://www.w3.org/2000/svg"
   xmlns:svg="http://www.w3.org/2000/svg">
  <sodipodi:namedview
     id="namedview7"
     pagecolor="#ffffff"
     bordercolor="#666666"
     borderopacity="1.0"
     inkscape:pageshadow="2"
     inkscape:pageopacity="0.0"
     inkscape:pagecheckerboard="0"
     inkscape:document-units="mm"
     showgrid="false"
     units="px"
     width="512px"
     inkscape:zoom="0.54866744"
     inkscape:cx="744.53115"
     inkscape:cy="240.58289"
     inkscape:window-width="1858"
     inkscape:window-height="1057"
     inkscape:window-x="54"
     inkscape:window-y="-8"
     inkscape:window-maximized="1"
     inkscape:current-layer="layer1" />
  <defs
     id="defs2" />
  <g
     inkscape:label="Layer 1"
     inkscape:groupmode="layer"
     id="layer1">
    <g
       aria-label="&gt;&lt;"
       transform="scale(0.80833843,1.2371056)"
       id="text1683"
       style="font-size:13.0927px;line-height:1.25;fill:#06bee1;stroke-width:0.327317">
      <path
         d="m 9.1387253,54.92512 q 4.2449067,0 56.5987497,34.312992 3.537421,4.244906 3.537421,9.904781 0,2.829937 -24.40821,20.163307 -16.979625,21.22453 -24.761953,21.22453 -8.843555,-2.82994 -8.843555,-9.90478 v -1.06123 q 0,-5.30613 26.884406,-31.129312 V 95.959213 Q 0.29517078,73.319713 0.29517078,65.891128 v -1.414969 q 0,-4.952391 8.84355452,-9.551039 z"
         style="font-size:362.232px;font-family:'Sue Ellen Francisco';-inkscape-font-specification:'Sue Ellen Francisco, Normal'"
         id="path20170" />
      <path
         d="m 156.29548,31.578136 q 9.19729,0 10.966,12.027234 0,4.244906 -37.85041,44.571515 v 1.061227 q 31.48305,14.149688 31.48305,21.224528 v 1.06123 q -1.76871,9.90478 -10.25852,9.90478 -45.279,-17.68711 -50.23139,-32.190538 0,-6.013617 31.48306,-32.190539 15.56465,-20.870789 24.40821,-25.469437 z"
         style="font-size:362.232px;font-family:'Sue Ellen Francisco';-inkscape-font-specification:'Sue Ellen Francisco, Normal'"
         id="path20172" />
    </g>
    <g
       aria-label="BUS"
       id="text5156"
       style="font-size:211.667px;line-height:1.25;font-family:'Sue Ellen Francisco';-inkscape-font-specification:'Sue Ellen Francisco, Normal';fill:#06bee1;stroke-width:0.264583">
      <path
         d="m 184.78616,16.976868 q 2.68718,0.413412 6.61459,5.374357 l 6.20119,-0.620118 q 25.01143,0 35.96685,28.938849 2.68718,9.095067 2.68718,16.536485 v 1.860354 l 0.41341,0.620119 -0.41341,0.826824 v 2.480473 q 0,18.396839 -12.40236,36.586969 20.25719,12.81578 20.25719,37.00039 v 4.54753 q 0,25.83826 -18.39684,48.78263 -8.06154,7.85483 -16.9499,7.85483 l -9.50848,-1.86035 h -0.62011 l -2.27377,1.24023 h -2.48047 q -5.58107,0 -7.23471,-13.22918 -5.16766,-26.25167 -5.16766,-59.11794 v -11.78224 l -3.10059,-7.23471 v -0.41342 l 3.10059,-5.78777 V 91.804462 q 0,-42.994861 -3.10059,-69.453237 1.44695,-5.374357 6.40789,-5.374357 z m 7.23471,17.570015 q 1.86036,28.732143 1.86036,62.425231 v 13.849306 h 5.37435 q 16.12308,0 23.97791,-29.352261 l 0.62012,-7.85483 v -7.234712 q 0,-23.357785 -18.39684,-31.212616 l -7.85483,-1.446942 h -2.48048 z m 3.72071,88.470197 h -1.86035 v 11.16212 q 0,57.8777 7.85483,57.8777 2.48047,3.3073 5.78777,3.3073 h 2.68718 q 12.40236,0 20.87731,-35.76015 l 0.62012,-11.78224 q 0,-23.5645 -15.50296,-27.28521 h -5.58106 z"
         id="path20026" />
      <path
         d="m 315.42439,0.23367681 q 8.47495,0 8.47495,45.47533319 1.24024,9.095067 1.24024,47.542395 l -0.62012,37.620505 q 4.75424,52.50334 12.40236,62.01182 5.99448,4.13412 5.99448,6.40788 -1.24024,4.96095 -4.75424,6.6146 h -2.48047 q -10.33531,0 -16.9499,-27.2852 -1.24024,0.41341 -7.02801,16.9499 -7.44142,10.3353 -15.08954,10.3353 -26.25167,0 -31.21262,-69.65994 l -10.542,-122.369993 q 2.06706,-4.5475335 5.78777,-4.5475335 7.23471,0 7.23471,19.4303695 l 12.40236,134.152237 q 6.6146,30.59249 16.32978,30.59249 11.36883,-3.10059 15.08954,-64.49229 -3.514,-54.363691 -3.514,-98.185376 V 6.6415647 q 0,-5.3743576 7.23471,-6.40788789 z"
         id="path20028" />
      <path
         d="m 389.21846,7.675095 q 20.6706,0 29.35226,24.804727 1.24024,2.480473 1.24024,7.234713 0,5.167651 -6.40789,5.787769 -5.58107,0 -7.02801,-13.6426 -7.028,-11.782245 -15.70966,-11.782245 h -2.89388 q -12.60907,0 -14.88284,24.804727 v 0.620118 q 0,29.765673 37.82721,89.917136 11.78224,22.94437 11.78224,38.44733 0,21.08402 -21.49743,32.65956 l -7.23471,1.24023 q -19.01696,0 -36.38027,-26.04496 -3.30729,-5.78777 -3.30729,-12.40236 0,-10.54201 7.23471,-11.78225 h 1.86035 q 4.54754,3.10059 4.54754,5.78777 l -1.24024,5.99448 v 0.41341 q 0,13.43589 22.11755,24.80473 l 3.92742,0.82682 h 1.86035 q 10.74872,0 15.70966,-18.39684 v -2.48047 q 0,-22.11755 -28.73214,-65.11241 -20.67061,-40.721097 -20.67061,-63.872176 0,-26.044963 20.05049,-36.3802665 z"
         id="path20030" />
    </g>
  </g>
</svg>
